<svg width="56" height="56" viewBox="0 0 56 56" fill="none" xmlns="http://www.w3.org/2000/svg">
<circle cx="28" cy="28" r="28" fill="#ECF2FF"/>
<path fill-rule="evenodd" clip-rule="evenodd" d="M28 28C32.3349 28 35.8645 31.4478 35.9962 35.7508L36 36V37H20V36C20 31.5817 23.5817 28 28 28ZM28 30C25.1444 30 22.7548 31.9948 22.1486 34.667L22.101 34.8977L22.084 35H33.915L33.899 34.8977C33.4095 32.2618 31.1969 30.2312 28.4739 30.0184L28.2249 30.0041L28 30ZM28 19C30.2091 19 32 20.7909 32 23C32 25.2091 30.2091 27 28 27C25.7909 27 24 25.2091 24 23C24 20.7909 25.7909 19 28 19ZM28 21C26.8954 21 26 21.8954 26 23C26 24.1046 26.8954 25 28 25C29.1046 25 30 24.1046 30 23C30 21.8954 29.1046 21 28 21Z" fill="#1E5EFF"/>
</svg>
