<svg width="34" height="30" viewBox="0 0 34 30" fill="none" xmlns="http://www.w3.org/2000/svg">
<path d="M32.3127 10.0192H28.5857L22.9915 1.62028C22.7689 1.28665 22.423 1.0551 22.0297 0.976555C21.6364 0.898012 21.228 0.978916 20.8944 1.20147C20.5608 1.42402 20.3292 1.77 20.2507 2.16328C20.1721 2.55656 20.253 2.96493 20.4756 3.29856L24.9525 10.0192H9.43371L13.9152 3.29856C14.1377 2.96493 14.2186 2.55656 14.1401 2.16328C14.0615 1.77 13.83 1.42402 13.4964 1.20147C13.1627 0.978916 12.7544 0.898012 12.3611 0.976555C11.9678 1.0551 11.6218 1.28665 11.3993 1.62028L5.80047 10.0192H2.07349C1.67249 10.0192 1.28791 10.1785 1.00437 10.4621C0.720819 10.7456 0.561523 11.1302 0.561523 11.5312C0.561523 11.9322 0.720819 12.3168 1.00437 12.6003C1.28791 12.8839 1.67249 13.0432 2.07349 13.0432H3.58545V25.1389C3.58545 26.3419 4.06333 27.4956 4.91398 28.3462C5.76462 29.1969 6.91834 29.6747 8.12133 29.6747H26.2649C27.4679 29.6747 28.6216 29.1969 29.4722 28.3462C30.3229 27.4956 30.8008 26.3419 30.8008 25.1389V13.0432H32.3127C32.7137 13.0432 33.0983 12.8839 33.3818 12.6003C33.6654 12.3168 33.8247 11.9322 33.8247 11.5312C33.8247 11.1302 33.6654 10.7456 33.3818 10.4621C33.0983 10.1785 32.7137 10.0192 32.3127 10.0192ZM27.7768 25.1389C27.7768 25.5399 27.6175 25.9244 27.334 26.208C27.0504 26.4915 26.6659 26.6508 26.2649 26.6508H8.12133C7.72033 26.6508 7.33576 26.4915 7.05221 26.208C6.76867 25.9244 6.60937 25.5399 6.60937 25.1389V13.0432H27.7768V25.1389Z" fill="#D651FF"/>
<path d="M11.145 24.3828C11.546 24.3828 11.9306 24.2235 12.2141 23.94C12.4977 23.6564 12.657 23.2718 12.657 22.8708V16.823C12.657 16.422 12.4977 16.0374 12.2141 15.7539C11.9306 15.4703 11.546 15.311 11.145 15.311C10.744 15.311 10.3594 15.4703 10.0759 15.7539C9.79235 16.0374 9.63306 16.422 9.63306 16.823V22.8708C9.63306 23.2718 9.79235 23.6564 10.0759 23.94C10.3594 24.2235 10.744 24.3828 11.145 24.3828Z" fill="#D651FF"/>
<path d="M17.1931 24.3828C17.5941 24.3828 17.9787 24.2235 18.2622 23.94C18.5458 23.6564 18.7051 23.2718 18.7051 22.8708V16.823C18.7051 16.422 18.5458 16.0374 18.2622 15.7539C17.9787 15.4703 17.5941 15.311 17.1931 15.311C16.7921 15.311 16.4075 15.4703 16.124 15.7539C15.8404 16.0374 15.6812 16.422 15.6812 16.823V22.8708C15.6812 23.2718 15.8404 23.6564 16.124 23.94C16.4075 24.2235 16.7921 24.3828 17.1931 24.3828Z" fill="#D651FF"/>
<path d="M23.2405 24.3828C23.6415 24.3828 24.0261 24.2235 24.3096 23.94C24.5932 23.6564 24.7525 23.2718 24.7525 22.8708V16.823C24.7525 16.422 24.5932 16.0374 24.3096 15.7539C24.0261 15.4703 23.6415 15.311 23.2405 15.311C22.8395 15.311 22.4549 15.4703 22.1714 15.7539C21.8878 16.0374 21.7285 16.422 21.7285 16.823V22.8708C21.7285 23.2718 21.8878 23.6564 22.1714 23.94C22.4549 24.2235 22.8395 24.3828 23.2405 24.3828Z" fill="#D651FF"/>
</svg>
