<svg width="34" height="38" viewBox="0 0 34 38" fill="none" xmlns="http://www.w3.org/2000/svg">
<path d="M31.7512 12.1839H28.0242L22.43 1.53428C22.2074 1.11124 21.8614 0.817636 21.4681 0.718046C21.0749 0.618456 20.6665 0.72104 20.3329 1.00323C19.9992 1.28542 19.7677 1.72411 19.6891 2.22278C19.6106 2.72145 19.6915 3.23926 19.914 3.66229L24.391 12.1839H8.87219L13.3536 3.66229C13.5762 3.23926 13.6571 2.72145 13.5786 2.22278C13.5 1.72411 13.2685 1.28542 12.9348 1.00323C12.6012 0.72104 12.1928 0.618456 11.7995 0.718046C11.4063 0.817636 11.0603 1.11124 10.8377 1.53428L5.23895 12.1839H1.51196C1.11096 12.1839 0.726391 12.3859 0.442843 12.7454C0.159295 13.105 0 13.5926 0 14.1011C0 14.6095 0.159295 15.0971 0.442843 15.4567C0.726391 15.8162 1.11096 16.0182 1.51196 16.0182H3.02392V31.3552C3.02392 32.8806 3.50181 34.3435 4.35245 35.4221C5.2031 36.5007 6.35682 37.1066 7.55981 37.1066H25.7033C26.9063 37.1066 28.0601 36.5007 28.9107 35.4221C29.7613 34.3435 30.2392 32.8806 30.2392 31.3552V16.0182H31.7512C32.1522 16.0182 32.5368 15.8162 32.8203 15.4567C33.1039 15.0971 33.2632 14.6095 33.2632 14.1011C33.2632 13.5926 33.1039 13.105 32.8203 12.7454C32.5368 12.3859 32.1522 12.1839 31.7512 12.1839ZM27.2153 31.3552C27.2153 31.8637 27.056 32.3513 26.7725 32.7108C26.4889 33.0704 26.1043 33.2723 25.7033 33.2723H7.55981C7.15881 33.2723 6.77424 33.0704 6.49069 32.7108C6.20714 32.3513 6.04785 31.8637 6.04785 31.3552V16.0182H27.2153V31.3552Z" fill="white"/>
<path d="M10.5835 30.3966C10.9845 30.3966 11.3691 30.1946 11.6526 29.8351C11.9362 29.4755 12.0955 28.9879 12.0955 28.4794V20.8109C12.0955 20.3025 11.9362 19.8148 11.6526 19.4553C11.3691 19.0958 10.9845 18.8938 10.5835 18.8938C10.1825 18.8938 9.79792 19.0958 9.51438 19.4553C9.23083 19.8148 9.07153 20.3025 9.07153 20.8109V28.4794C9.07153 28.9879 9.23083 29.4755 9.51438 29.8351C9.79792 30.1946 10.1825 30.3966 10.5835 30.3966Z" fill="white"/>
<path d="M16.6316 30.3966C17.0326 30.3966 17.4172 30.1946 17.7007 29.8351C17.9843 29.4755 18.1436 28.9879 18.1436 28.4794V20.8109C18.1436 20.3025 17.9843 19.8148 17.7007 19.4553C17.4172 19.0958 17.0326 18.8938 16.6316 18.8938C16.2306 18.8938 15.846 19.0958 15.5625 19.4553C15.2789 19.8148 15.1196 20.3025 15.1196 20.8109V28.4794C15.1196 28.9879 15.2789 29.4755 15.5625 29.8351C15.846 30.1946 16.2306 30.3966 16.6316 30.3966Z" fill="white"/>
<path d="M22.679 30.3966C23.08 30.3966 23.4645 30.1946 23.7481 29.8351C24.0316 29.4755 24.1909 28.9879 24.1909 28.4794V20.8109C24.1909 20.3025 24.0316 19.8148 23.7481 19.4553C23.4645 19.0958 23.08 18.8938 22.679 18.8938C22.278 18.8938 21.8934 19.0958 21.6098 19.4553C21.3263 19.8148 21.167 20.3025 21.167 20.8109V28.4794C21.167 28.9879 21.3263 29.4755 21.6098 29.8351C21.8934 30.1946 22.278 30.3966 22.679 30.3966Z" fill="white"/>
</svg>
