<svg width="44" height="60" viewBox="0 0 44 60" fill="none" xmlns="http://www.w3.org/2000/svg">
<path d="M31.165 42.0495L33.9087 37.5973L38.8601 35.9086L39.4086 30.7082L43.1339 27.0408L41.3627 22.1182L43.1339 17.1955L39.4087 13.5281L38.8602 8.32781L33.9088 6.63914L31.1651 2.18684L25.9754 2.81344L21.567 0L17.1585 2.81367L11.9689 2.18707L9.22523 6.63926L4.27383 8.32793L3.72527 13.5282L0 17.1956L1.77117 22.1183L0 27.041L3.72516 30.7083L4.27371 35.9087L9.22512 37.5974L11.9688 42.0496L17.1585 41.4231L21.567 44.2366L25.9754 41.4231L31.165 42.0495ZM6.39949 22.1183C6.39949 13.755 13.2036 6.95086 21.567 6.95086C29.9303 6.95086 36.7344 13.755 36.7344 22.1183C36.7344 30.4816 29.9303 37.2858 21.567 37.2858C13.2036 37.2858 6.39949 30.4816 6.39949 22.1183Z" fill="#D651FF"/>
<path d="M21.5671 10.4688C15.1435 10.4688 9.91748 15.6947 9.91748 22.1184C9.91748 28.542 15.1435 33.768 21.5671 33.768C27.9907 33.768 33.2167 28.542 33.2167 22.1184C33.2167 15.6947 27.9907 10.4688 21.5671 10.4688Z" fill="#D651FF"/>
<path d="M16.3287 45.0665L10.1552 45.8118L6.89355 40.5188L5.78473 40.1407L1.00195 55.0899L9.6123 54.6164L16.3488 60L20.313 47.6095L16.3287 45.0665Z" fill="#D651FF"/>
<path d="M36.2408 40.5189L32.979 45.8118L26.8057 45.0665L22.8213 47.6095L26.7855 60L33.522 54.6164L42.1324 55.0899L37.3496 40.1407L36.2408 40.5189Z" fill="#D651FF"/>
</svg>
