<svg width="60" height="60" viewBox="0 0 60 60" fill="none" xmlns="http://www.w3.org/2000/svg">
<path d="M5 2.5C5 3.88071 3.88071 5 2.5 5C1.11929 5 0 3.88071 0 2.5C0 1.11929 1.11929 0 2.5 0C3.88071 0 5 1.11929 5 2.5Z" fill="white" fill-opacity="0.15"/>
<path d="M16 2.5C16 3.88071 14.8807 5 13.5 5C12.1193 5 11 3.88071 11 2.5C11 1.11929 12.1193 0 13.5 0C14.8807 0 16 1.11929 16 2.5Z" fill="white" fill-opacity="0.15"/>
<path d="M27 2.5C27 3.88071 25.8807 5 24.5 5C23.1193 5 22 3.88071 22 2.5C22 1.11929 23.1193 0 24.5 0C25.8807 0 27 1.11929 27 2.5Z" fill="white" fill-opacity="0.15"/>
<path d="M38 2.5C38 3.88071 36.8807 5 35.5 5C34.1193 5 33 3.88071 33 2.5C33 1.11929 34.1193 0 35.5 0C36.8807 0 38 1.11929 38 2.5Z" fill="white" fill-opacity="0.15"/>
<path d="M49 2.5C49 3.88071 47.8807 5 46.5 5C45.1193 5 44 3.88071 44 2.5C44 1.11929 45.1193 0 46.5 0C47.8807 0 49 1.11929 49 2.5Z" fill="white" fill-opacity="0.15"/>
<path d="M60 2.5C60 3.88071 58.8807 5 57.5 5C56.1193 5 55 3.88071 55 2.5C55 1.11929 56.1193 0 57.5 0C58.8807 0 60 1.11929 60 2.5Z" fill="white" fill-opacity="0.15"/>
<path d="M5 13.5C5 14.8807 3.88071 16 2.5 16C1.11929 16 0 14.8807 0 13.5C0 12.1193 1.11929 11 2.5 11C3.88071 11 5 12.1193 5 13.5Z" fill="white" fill-opacity="0.15"/>
<path d="M16 13.5C16 14.8807 14.8807 16 13.5 16C12.1193 16 11 14.8807 11 13.5C11 12.1193 12.1193 11 13.5 11C14.8807 11 16 12.1193 16 13.5Z" fill="white" fill-opacity="0.15"/>
<path d="M27 13.5C27 14.8807 25.8807 16 24.5 16C23.1193 16 22 14.8807 22 13.5C22 12.1193 23.1193 11 24.5 11C25.8807 11 27 12.1193 27 13.5Z" fill="white" fill-opacity="0.15"/>
<path d="M38 13.5C38 14.8807 36.8807 16 35.5 16C34.1193 16 33 14.8807 33 13.5C33 12.1193 34.1193 11 35.5 11C36.8807 11 38 12.1193 38 13.5Z" fill="white" fill-opacity="0.15"/>
<path d="M49 13.5C49 14.8807 47.8807 16 46.5 16C45.1193 16 44 14.8807 44 13.5C44 12.1193 45.1193 11 46.5 11C47.8807 11 49 12.1193 49 13.5Z" fill="white" fill-opacity="0.15"/>
<path d="M60 13.5C60 14.8807 58.8807 16 57.5 16C56.1193 16 55 14.8807 55 13.5C55 12.1193 56.1193 11 57.5 11C58.8807 11 60 12.1193 60 13.5Z" fill="white" fill-opacity="0.15"/>
<path d="M5 24.5C5 25.8807 3.88071 27 2.5 27C1.11929 27 0 25.8807 0 24.5C0 23.1193 1.11929 22 2.5 22C3.88071 22 5 23.1193 5 24.5Z" fill="white" fill-opacity="0.15"/>
<path d="M16 24.5C16 25.8807 14.8807 27 13.5 27C12.1193 27 11 25.8807 11 24.5C11 23.1193 12.1193 22 13.5 22C14.8807 22 16 23.1193 16 24.5Z" fill="white" fill-opacity="0.15"/>
<path d="M27 24.5C27 25.8807 25.8807 27 24.5 27C23.1193 27 22 25.8807 22 24.5C22 23.1193 23.1193 22 24.5 22C25.8807 22 27 23.1193 27 24.5Z" fill="white" fill-opacity="0.15"/>
<path d="M38 24.5C38 25.8807 36.8807 27 35.5 27C34.1193 27 33 25.8807 33 24.5C33 23.1193 34.1193 22 35.5 22C36.8807 22 38 23.1193 38 24.5Z" fill="white" fill-opacity="0.15"/>
<path d="M49 24.5C49 25.8807 47.8807 27 46.5 27C45.1193 27 44 25.8807 44 24.5C44 23.1193 45.1193 22 46.5 22C47.8807 22 49 23.1193 49 24.5Z" fill="white" fill-opacity="0.15"/>
<path d="M60 24.5C60 25.8807 58.8807 27 57.5 27C56.1193 27 55 25.8807 55 24.5C55 23.1193 56.1193 22 57.5 22C58.8807 22 60 23.1193 60 24.5Z" fill="white" fill-opacity="0.15"/>
<path d="M5 35.5C5 36.8807 3.88071 38 2.5 38C1.11929 38 0 36.8807 0 35.5C0 34.1193 1.11929 33 2.5 33C3.88071 33 5 34.1193 5 35.5Z" fill="white" fill-opacity="0.15"/>
<path d="M16 35.5C16 36.8807 14.8807 38 13.5 38C12.1193 38 11 36.8807 11 35.5C11 34.1193 12.1193 33 13.5 33C14.8807 33 16 34.1193 16 35.5Z" fill="white" fill-opacity="0.15"/>
<path d="M27 35.5C27 36.8807 25.8807 38 24.5 38C23.1193 38 22 36.8807 22 35.5C22 34.1193 23.1193 33 24.5 33C25.8807 33 27 34.1193 27 35.5Z" fill="white" fill-opacity="0.15"/>
<path d="M38 35.5C38 36.8807 36.8807 38 35.5 38C34.1193 38 33 36.8807 33 35.5C33 34.1193 34.1193 33 35.5 33C36.8807 33 38 34.1193 38 35.5Z" fill="white" fill-opacity="0.15"/>
<path d="M49 35.5C49 36.8807 47.8807 38 46.5 38C45.1193 38 44 36.8807 44 35.5C44 34.1193 45.1193 33 46.5 33C47.8807 33 49 34.1193 49 35.5Z" fill="white" fill-opacity="0.15"/>
<path d="M60 35.5C60 36.8807 58.8807 38 57.5 38C56.1193 38 55 36.8807 55 35.5C55 34.1193 56.1193 33 57.5 33C58.8807 33 60 34.1193 60 35.5Z" fill="white" fill-opacity="0.15"/>
<path d="M5 46.5C5 47.8807 3.88071 49 2.5 49C1.11929 49 0 47.8807 0 46.5C0 45.1193 1.11929 44 2.5 44C3.88071 44 5 45.1193 5 46.5Z" fill="white" fill-opacity="0.15"/>
<path d="M16 46.5C16 47.8807 14.8807 49 13.5 49C12.1193 49 11 47.8807 11 46.5C11 45.1193 12.1193 44 13.5 44C14.8807 44 16 45.1193 16 46.5Z" fill="white" fill-opacity="0.15"/>
<path d="M27 46.5C27 47.8807 25.8807 49 24.5 49C23.1193 49 22 47.8807 22 46.5C22 45.1193 23.1193 44 24.5 44C25.8807 44 27 45.1193 27 46.5Z" fill="white" fill-opacity="0.15"/>
<path d="M38 46.5C38 47.8807 36.8807 49 35.5 49C34.1193 49 33 47.8807 33 46.5C33 45.1193 34.1193 44 35.5 44C36.8807 44 38 45.1193 38 46.5Z" fill="white" fill-opacity="0.15"/>
<path d="M49 46.5C49 47.8807 47.8807 49 46.5 49C45.1193 49 44 47.8807 44 46.5C44 45.1193 45.1193 44 46.5 44C47.8807 44 49 45.1193 49 46.5Z" fill="white" fill-opacity="0.15"/>
<path d="M60 46.5C60 47.8807 58.8807 49 57.5 49C56.1193 49 55 47.8807 55 46.5C55 45.1193 56.1193 44 57.5 44C58.8807 44 60 45.1193 60 46.5Z" fill="white" fill-opacity="0.15"/>
<path d="M5 57.5C5 58.8807 3.88071 60 2.5 60C1.11929 60 0 58.8807 0 57.5C0 56.1193 1.11929 55 2.5 55C3.88071 55 5 56.1193 5 57.5Z" fill="white" fill-opacity="0.15"/>
<path d="M16 57.5C16 58.8807 14.8807 60 13.5 60C12.1193 60 11 58.8807 11 57.5C11 56.1193 12.1193 55 13.5 55C14.8807 55 16 56.1193 16 57.5Z" fill="white" fill-opacity="0.15"/>
<path d="M27 57.5C27 58.8807 25.8807 60 24.5 60C23.1193 60 22 58.8807 22 57.5C22 56.1193 23.1193 55 24.5 55C25.8807 55 27 56.1193 27 57.5Z" fill="white" fill-opacity="0.15"/>
<path d="M38 57.5C38 58.8807 36.8807 60 35.5 60C34.1193 60 33 58.8807 33 57.5C33 56.1193 34.1193 55 35.5 55C36.8807 55 38 56.1193 38 57.5Z" fill="white" fill-opacity="0.15"/>
<path d="M49 57.5C49 58.8807 47.8807 60 46.5 60C45.1193 60 44 58.8807 44 57.5C44 56.1193 45.1193 55 46.5 55C47.8807 55 49 56.1193 49 57.5Z" fill="white" fill-opacity="0.15"/>
<path d="M60 57.5C60 58.8807 58.8807 60 57.5 60C56.1193 60 55 58.8807 55 57.5C55 56.1193 56.1193 55 57.5 55C58.8807 55 60 56.1193 60 57.5Z" fill="white" fill-opacity="0.15"/>
</svg>
