<svg width="24" height="24" viewBox="0 0 24 24" fill="none" xmlns="http://www.w3.org/2000/svg">
<path fill-rule="evenodd" clip-rule="evenodd" d="M16.694 7.30602C17.102 7.71405 17.102 8.37559 16.694 8.78361L13.4783 11.9993L16.694 15.2164C17.102 15.6244 17.102 16.286 16.694 16.694C16.286 17.102 15.6244 17.102 15.2164 16.694L12.0007 13.4769L8.78361 16.694C8.37559 17.102 7.71405 17.102 7.30602 16.694C6.89799 16.286 6.89799 15.6244 7.30602 15.2164L10.5231 11.9993L7.30602 8.78361C6.89799 8.37559 6.89799 7.71405 7.30602 7.30602C7.71405 6.89799 8.37559 6.89799 8.78361 7.30602L12.0007 10.5217L15.2164 7.30602C15.6244 6.89799 16.286 6.89799 16.694 7.30602Z" fill="#7E84A3"/>
</svg>
