<svg width="60" height="54" viewBox="0 0 60 54" fill="none" xmlns="http://www.w3.org/2000/svg">
<path d="M26.25 15.7491V11.9991H3.75C1.68375 11.9991 0 13.6829 0 15.7491V23.2492H27.0413C26.52 20.9579 26.25 18.4904 26.25 15.7491Z" fill="#D651FF"/>
<path d="M59.8462 30.7491C57.2887 34.6904 53.3887 38.0429 47.8013 41.2529C46.9425 41.7441 45.975 41.9991 45 41.9991C44.025 41.9991 43.0575 41.7441 42.21 41.2604C36.6225 38.0429 32.7225 34.6866 30.1613 30.7491H0V49.4991C0 51.5691 1.68375 53.2491 3.75 53.2491H56.25C58.32 53.2491 60 51.5691 60 49.4991V30.7491H59.8462ZM16.875 41.9991H9.375C8.34 41.9991 7.5 41.1591 7.5 40.1241C7.5 39.0891 8.34 38.2491 9.375 38.2491H16.875C17.91 38.2491 18.75 39.0891 18.75 40.1241C18.75 41.1591 17.91 41.9991 16.875 41.9991Z" fill="#D651FF"/>
<path d="M58.8637 6.52773L45.7387 0.902729C45.2625 0.700229 44.7338 0.700229 44.2575 0.902729L31.1325 6.52773C30.4463 6.82023 30 7.49898 30 8.24898V15.749C30 26.0652 33.8138 32.0952 44.0663 38.0015C44.355 38.1665 44.6775 38.249 45 38.249C45.3225 38.249 45.645 38.1665 45.9337 38.0015C56.1862 32.1102 60 26.0802 60 15.749V8.24898C60 7.49898 59.5537 6.82023 58.8637 6.52773ZM52.0912 15.0477L44.5912 24.4227C44.2312 24.8652 43.6912 25.124 43.125 25.124C43.0988 25.124 43.0688 25.124 43.0463 25.124C42.45 25.0977 41.8987 24.7902 41.565 24.2915L37.815 18.6665C37.2412 17.804 37.4737 16.6415 38.3362 16.0677C39.1912 15.4977 40.3575 15.7227 40.935 16.589L43.2637 20.0802L49.1588 12.7077C49.8075 11.9015 50.9888 11.774 51.795 12.4152C52.605 13.0565 52.7325 14.2377 52.0912 15.0477Z" fill="#D651FF"/>
</svg>
