<svg width="41" height="40" viewBox="0 0 41 40" fill="none" xmlns="http://www.w3.org/2000/svg">
<rect x="2.66602" y="2" width="36" height="36" rx="18" fill="#E0E2E7"/>
<rect x="2.66602" y="2" width="36" height="36" rx="18" stroke="#F0F1F3" stroke-width="4"/>
<path fill-rule="evenodd" clip-rule="evenodd" d="M25.166 14.5C25.166 16.9853 23.1513 19 20.666 19C18.1807 19 16.166 16.9853 16.166 14.5C16.166 12.0147 18.1807 10 20.666 10C23.1513 10 25.166 12.0147 25.166 14.5ZM23.166 14.5C23.166 15.8807 22.0467 17 20.666 17C19.2853 17 18.166 15.8807 18.166 14.5C18.166 13.1193 19.2853 12 20.666 12C22.0467 12 23.166 13.1193 23.166 14.5Z" fill="#667085"/>
<path fill-rule="evenodd" clip-rule="evenodd" d="M11.666 26.9231C11.666 23.0996 14.7656 20 18.5891 20H22.7429C26.5664 20 29.666 23.0996 29.666 26.9231C29.666 28.0701 28.7361 29 27.5891 29H13.7429C12.5959 29 11.666 28.0701 11.666 26.9231ZM13.666 26.9231C13.666 24.2041 15.8702 22 18.5891 22H22.7429C25.4619 22 27.666 24.2041 27.666 26.9231C27.666 26.9656 27.6316 27 27.5891 27H13.7429C13.7005 27 13.666 26.9656 13.666 26.9231Z" fill="#667085"/>
</svg>
