<svg width="41" height="40" viewBox="0 0 41 40" fill="none" xmlns="http://www.w3.org/2000/svg">
<rect x="2.66602" y="2" width="36" height="36" rx="18" fill="#E0E2E7"/>
<rect x="2.66602" y="2" width="36" height="36" rx="18" stroke="#F0F1F3" stroke-width="4"/>
<path fill-rule="evenodd" clip-rule="evenodd" d="M10.666 15C10.666 13.3431 12.0092 12 13.666 12H27.666C29.3229 12 30.666 13.3431 30.666 15V25C30.666 26.6569 29.3229 28 27.666 28H13.666C12.0092 28 10.666 26.6569 10.666 25V15ZM26.9994 14H14.3327L20.066 18.3C20.4216 18.5667 20.9105 18.5667 21.266 18.3L26.9994 14ZM12.666 15.25V25C12.666 25.5523 13.1137 26 13.666 26H27.666C28.2183 26 28.666 25.5523 28.666 25V15.25L22.466 19.9C21.3994 20.7 19.9327 20.7 18.866 19.9L12.666 15.25Z" fill="#667085"/>
</svg>
