<svg width="41" height="41" viewBox="0 0 41 41" fill="none" xmlns="http://www.w3.org/2000/svg">
<path d="M41 21.3309C41 19.8787 40.8839 18.4318 40.6413 17H21V25.2015H32.2483C31.7833 27.8476 30.2824 30.1884 28.0897 31.6717V37H34.805C38.7363 33.2997 41 27.8165 41 21.3309Z" fill="#4285F4"/>
<path d="M20.9437 41C26.6653 41 31.4862 39.1383 35 35.9249L28.1625 30.6662C26.2588 31.9465 23.8097 32.6759 20.9437 32.6759C15.413 32.6759 10.7206 28.9783 9.03827 24H2V29.4166C5.60137 36.5218 12.928 41 20.9437 41Z" fill="#34A853"/>
<path d="M9 24.1185C8.13885 21.772 8.13885 19.2233 9 16.8723V12H2.18455C-0.728184 17.3496 -0.728184 23.6501 2.18455 29L9 24.1185Z" fill="#FBBC04"/>
<path d="M20.8672 8.32453C23.8804 8.27861 26.7858 9.40596 28.9687 11.4766L35 5.47862C31.1774 1.90869 26.1147 -0.0549833 20.8672 0.00117204C12.8838 0.00117204 5.58185 4.48407 2 11.5837L9.0148 17C10.6854 12.017 15.3588 8.32453 20.8672 8.32453Z" fill="#EA4335"/>
</svg>
