<svg width="56" height="56" viewBox="0 0 56 56" fill="none" xmlns="http://www.w3.org/2000/svg">
<path d="M47.9163 29.8945H43.5854C44.0269 31.1031 44.2681 32.4074 44.2681 33.7668V50.1348C44.2681 50.7016 44.1694 51.2457 43.9899 51.7516H51.1497C53.8243 51.7516 56.0001 49.5757 56.0001 46.9013V37.9783C56.0002 33.521 52.3737 29.8945 47.9163 29.8945Z" fill="white"/>
<path d="M11.7321 33.7671C11.7321 32.4076 11.9733 31.1034 12.4147 29.8948H8.08392C3.62644 29.8948 0 33.5212 0 37.9787V46.9016C0 49.5761 2.1758 51.752 4.85035 51.752H12.0103C11.8308 51.2458 11.7321 50.7019 11.7321 50.1351V33.7671Z" fill="white"/>
<path d="M32.9506 25.6831H23.0497C18.5923 25.6831 14.9658 29.3096 14.9658 33.767V50.135C14.9658 51.0279 15.6897 51.7518 16.5826 51.7518H39.4177C40.3107 51.7518 41.0345 51.028 41.0345 50.135V33.767C41.0345 29.3096 37.4081 25.6831 32.9506 25.6831Z" fill="white"/>
<path d="M28.0002 4.24829C22.6395 4.24829 18.2783 8.60952 18.2783 13.9703C18.2783 17.6065 20.2852 20.7822 23.2491 22.4495C24.6549 23.2403 26.2756 23.6923 28.0002 23.6923C29.7249 23.6923 31.3456 23.2403 32.7514 22.4495C35.7153 20.7822 37.7222 17.6064 37.7222 13.9703C37.7222 8.60963 33.3609 4.24829 28.0002 4.24829Z" fill="white"/>
<path d="M10.9284 13.3098C6.91928 13.3098 3.65771 16.5714 3.65771 20.5805C3.65771 24.5897 6.91928 27.8513 10.9284 27.8513C11.9454 27.8513 12.9138 27.6406 13.7935 27.2619C15.3145 26.6071 16.5686 25.4479 17.3446 23.996C17.8893 22.9769 18.1992 21.8144 18.1992 20.5805C18.1992 16.5715 14.9376 13.3098 10.9284 13.3098Z" fill="white"/>
<path d="M45.0715 13.3098C41.0624 13.3098 37.8008 16.5714 37.8008 20.5805C37.8008 21.8145 38.1106 22.9771 38.6553 23.996C39.4313 25.4481 40.6854 26.6072 42.2064 27.2619C43.0861 27.6406 44.0545 27.8513 45.0715 27.8513C49.0807 27.8513 52.3422 24.5897 52.3422 20.5805C52.3422 16.5714 49.0807 13.3098 45.0715 13.3098Z" fill="white"/>
</svg>
