<svg width="38" height="38" viewBox="0 0 38 38" fill="none" xmlns="http://www.w3.org/2000/svg">
<path fill-rule="evenodd" clip-rule="evenodd" d="M24.9308 21.226C25.1909 20.5335 25.3332 19.7833 25.3332 18.9998C25.3332 15.502 22.4976 12.6665 18.9998 12.6665C18.2164 12.6665 17.4662 12.8088 16.7736 13.0688L18.411 14.7062C18.6035 14.68 18.8001 14.6665 18.9998 14.6665C21.3931 14.6665 23.3332 16.6066 23.3332 18.9998C23.3332 19.1996 23.3197 19.3961 23.2935 19.5887L24.9308 21.226ZM15.6785 16.2164C15.0469 16.9693 14.6665 17.9401 14.6665 18.9998C14.6665 21.3931 16.6066 23.3332 18.9998 23.3332C20.0595 23.3332 21.0304 22.9528 21.7833 22.3211L23.2012 23.7391C22.0833 24.7309 20.6119 25.3332 18.9998 25.3332C15.502 25.3332 12.6665 22.4976 12.6665 18.9998C12.6665 17.3878 13.2688 15.9164 14.2606 14.7984L15.6785 16.2164Z" fill="#33363F"/>
<path fill-rule="evenodd" clip-rule="evenodd" d="M28.9241 25.2196C30.8795 23.5589 32.3828 21.7924 33.2426 20.692C33.2665 20.6615 33.2914 20.6301 33.317 20.5978C33.6205 20.2146 34.0266 19.7022 34.0266 19C34.0266 18.2978 33.6205 17.7854 33.317 17.4022L33.3167 17.4019C33.2912 17.3697 33.2664 17.3384 33.2426 17.308C32.2436 16.0294 30.3758 13.8516 27.9395 11.9852C25.5148 10.1277 22.4241 8.5 18.9999 8.5C17.0483 8.5 15.2051 9.0287 13.5318 9.82731L15.0458 11.3413C16.3118 10.8167 17.6402 10.5 18.9999 10.5C21.7968 10.5 24.4617 11.8404 26.7232 13.5729C28.9731 15.2964 30.7221 17.3304 31.6667 18.5394C31.7644 18.6645 31.8386 18.7595 31.9002 18.8431C31.9532 18.9149 31.9866 18.9644 32.0083 19C31.9866 19.0356 31.9532 19.0851 31.9002 19.1569C31.8386 19.2405 31.7644 19.3355 31.6667 19.4606C30.8345 20.5257 29.3781 22.231 27.5048 23.8003L28.9241 25.2196ZM26.4957 27.0338L25.0454 25.5836C23.1871 26.7212 21.1318 27.5 18.9999 27.5C16.2029 27.5 13.538 26.1596 11.2765 24.4271C9.02666 22.7036 7.27768 20.6696 6.33307 19.4606C6.23531 19.3355 6.16114 19.2405 6.09949 19.1569C6.04651 19.0851 6.01315 19.0356 5.99147 19C6.01315 18.9644 6.04651 18.9149 6.09949 18.8431C6.16114 18.7595 6.23531 18.6645 6.33307 18.5394C7.27768 17.3304 9.02666 15.2964 11.2765 13.5729C11.609 13.3182 11.9501 13.072 12.2991 12.8373L10.8607 11.3988C10.5865 11.5905 10.3196 11.7865 10.0603 11.9852C7.62394 13.8516 5.75611 16.0294 4.7571 17.308C4.7333 17.3384 4.70847 17.3698 4.68291 17.402L4.68274 17.4022C4.37918 17.7854 3.97314 18.2978 3.97314 19C3.97314 19.7022 4.37918 20.2146 4.68274 20.5978C4.70836 20.6301 4.73325 20.6615 4.7571 20.692C5.7561 21.9706 7.62394 24.1484 10.0603 26.0148C12.485 27.8723 15.5757 29.5 18.9999 29.5C21.777 29.5 24.3347 28.4294 26.4957 27.0338Z" fill="#33363F"/>
<path d="M7.9165 3.1665L33.2498 28.4998" stroke="#33363F" stroke-width="2"/>
</svg>
