<svg width="13" height="10" viewBox="0 0 13 10" fill="none" xmlns="http://www.w3.org/2000/svg">
<path fill-rule="evenodd" clip-rule="evenodd" d="M4.3871 0.209705L4.29289 0.292893L0.292893 4.29289C-0.0675907 4.65338 -0.0953203 5.22061 0.209705 5.6129L0.292893 5.70711L4.29289 9.70711C4.68342 10.0976 5.31658 10.0976 5.70711 9.70711C6.06759 9.34662 6.09532 8.77939 5.7903 8.3871L5.70711 8.29289L3.414 5.999L12 6C12.5523 6 13 5.55228 13 5C13 4.44772 12.5523 4 12 4L3.416 3.999L5.70711 1.70711C6.06759 1.34662 6.09532 0.779392 5.7903 0.387101L5.70711 0.292893C5.34662 -0.0675907 4.77939 -0.0953203 4.3871 0.209705Z" fill="#7E84A3"/>
</svg>
