<svg width="58" height="59" viewBox="0 0 58 59" fill="none" xmlns="http://www.w3.org/2000/svg">
<rect x="0.5" y="1.41992" width="57" height="57" rx="28.5" stroke="#F0E4F4"/>
<path d="M28.802 25.4075C26.3048 25.4075 24.2906 27.4221 24.2906 29.9199C24.2906 32.4176 26.3048 34.4323 28.802 34.4323C31.2991 34.4323 33.3134 32.4176 33.3134 29.9199C33.3134 27.4221 31.2991 25.4075 28.802 25.4075ZM28.802 32.8535C27.1882 32.8535 25.869 31.5379 25.869 29.9199C25.869 28.3018 27.1843 26.9862 28.802 26.9862C30.4196 26.9862 31.735 28.3018 31.735 29.9199C31.735 31.5379 30.4157 32.8535 28.802 32.8535ZM34.5502 25.2229C34.5502 25.808 34.079 26.2754 33.4979 26.2754C32.9129 26.2754 32.4456 25.8041 32.4456 25.2229C32.4456 24.6416 32.9168 24.1704 33.4979 24.1704C34.079 24.1704 34.5502 24.6416 34.5502 25.2229ZM37.5382 26.2911C37.4714 24.8812 37.1494 23.6323 36.1168 22.6034C35.0881 21.5745 33.8395 21.2524 32.4299 21.1817C30.9772 21.0993 26.6228 21.0993 25.1701 21.1817C23.7644 21.2485 22.5158 21.5705 21.4832 22.5995C20.4506 23.6284 20.1325 24.8773 20.0618 26.2872C19.9794 27.7402 19.9794 32.0956 20.0618 33.5487C20.1286 34.9585 20.4506 36.2074 21.4832 37.2364C22.5158 38.2653 23.7605 38.5873 25.1701 38.658C26.6228 38.7405 30.9772 38.7405 32.4299 38.658C33.8395 38.5913 35.0881 38.2692 36.1168 37.2364C37.1455 36.2074 37.4675 34.9585 37.5382 33.5487C37.6206 32.0956 37.6206 27.7442 37.5382 26.2911ZM35.6613 35.1078C35.3551 35.8775 34.7622 36.4705 33.9887 36.7808C32.8304 37.2403 30.082 37.1342 28.802 37.1342C27.522 37.1342 24.7696 37.2364 23.6152 36.7808C22.8456 36.4745 22.2528 35.8814 21.9426 35.1078C21.4832 33.9492 21.5892 31.2002 21.5892 29.9199C21.5892 28.6396 21.4871 25.8866 21.9426 24.732C22.2488 23.9622 22.8417 23.3692 23.6152 23.059C24.7735 22.5995 27.522 22.7055 28.802 22.7055C30.082 22.7055 32.8344 22.6034 33.9887 23.059C34.7583 23.3653 35.3512 23.9583 35.6613 24.732C36.1207 25.8905 36.0147 28.6396 36.0147 29.9199C36.0147 31.2002 36.1207 33.9532 35.6613 35.1078Z" fill="#CA8FDD"/>
</svg>
