<svg width="41" height="40" viewBox="0 0 41 40" fill="none" xmlns="http://www.w3.org/2000/svg">
<rect x="2.33398" y="2" width="36" height="36" rx="18" fill="#E0E2E7"/>
<rect x="2.33398" y="2" width="36" height="36" rx="18" stroke="#F0F1F3" stroke-width="4"/>
<path d="M14.334 24C14.334 23.4477 14.7817 23 15.334 23H17.334C17.8863 23 18.334 23.4477 18.334 24C18.334 24.5523 17.8863 25 17.334 25H15.334C14.7817 25 14.334 24.5523 14.334 24Z" fill="#667085"/>
<path d="M15.334 19C14.7817 19 14.334 19.4477 14.334 20C14.334 20.5523 14.7817 21 15.334 21H21.334C21.8863 21 22.334 20.5523 22.334 20C22.334 19.4477 21.8863 19 21.334 19H15.334Z" fill="#667085"/>
<path d="M14.334 16C14.334 15.4477 14.7817 15 15.334 15H21.334C21.8863 15 22.334 15.4477 22.334 16C22.334 16.5523 21.8863 17 21.334 17H15.334C14.7817 17 14.334 16.5523 14.334 16Z" fill="#667085"/>
<path fill-rule="evenodd" clip-rule="evenodd" d="M10.334 15C10.334 12.7909 12.1248 11 14.334 11H22.334C24.5431 11 26.334 12.7909 26.334 15V18H27.334C28.9908 18 30.334 19.3431 30.334 21V26C30.334 27.6569 28.9908 29 27.334 29H14.334C12.1248 29 10.334 27.2091 10.334 25V15ZM27.334 27C27.8863 27 28.334 26.5523 28.334 26V21C28.334 20.4477 27.8863 20 27.334 20H26.334V26C26.334 26.5523 26.7817 27 27.334 27ZM24.334 26C24.334 26.3506 24.3941 26.6872 24.5047 27H14.334C13.2294 27 12.334 26.1046 12.334 25V15C12.334 13.8954 13.2294 13 14.334 13H22.334C23.4386 13 24.334 13.8954 24.334 15V26Z" fill="#667085"/>
</svg>
