<svg width="58" height="59" viewBox="0 0 58 59" fill="none" xmlns="http://www.w3.org/2000/svg">
<rect x="0.5" y="1.41992" width="57" height="57" rx="28.5" stroke="#F0E4F4"/>
<path d="M36.8286 20.72H20.3671C19.6129 20.72 19 21.3155 19 22.0466V37.7934C19 38.5244 19.6129 39.12 20.3671 39.12H36.8286C37.5829 39.12 38.2 38.5244 38.2 37.7934V22.0466C38.2 21.3155 37.5829 20.72 36.8286 20.72ZM24.8029 36.4914H21.9571V27.7103H24.8071V36.4914H24.8029ZM23.38 26.511C22.4671 26.511 21.73 25.8005 21.73 24.9298C21.73 24.0591 22.4671 23.3485 23.38 23.3485C24.2886 23.3485 25.03 24.0591 25.03 24.9298C25.03 25.8046 24.2929 26.511 23.38 26.511ZM35.47 36.4914H32.6243V32.22C32.6243 31.2014 32.6029 29.8912 31.1457 29.8912C29.6629 29.8912 29.4357 31.0001 29.4357 32.146V36.4914H26.59V27.7103H29.32V28.9096H29.3586C29.74 28.2196 30.67 27.4926 32.0543 27.4926C34.9343 27.4926 35.47 29.3121 35.47 31.6778V36.4914Z" fill="#CA8FDD"/>
</svg>
