<svg width="56" height="56" viewBox="0 0 56 56" fill="none" xmlns="http://www.w3.org/2000/svg">
<circle cx="28" cy="28" r="28" fill="#ECF2FF"/>
<path fill-rule="evenodd" clip-rule="evenodd" d="M23.5 35C24.3284 35 25 35.6716 25 36.5C25 37.3284 24.3284 38 23.5 38C22.6716 38 22 37.3284 22 36.5C22 35.6716 22.6716 35 23.5 35ZM33.5 35C34.3284 35 35 35.6716 35 36.5C35 37.3284 34.3284 38 33.5 38C32.6716 38 32 37.3284 32 36.5C32 35.6716 32.6716 35 33.5 35ZM20.5 18C20.721 18 20.9345 18.0732 21.108 18.2061L21.2071 18.2929L23.915 21H36.4895C37.0418 21 37.4895 21.4477 37.4895 22C37.4895 22.1342 37.4625 22.267 37.4101 22.3905L34.6989 28.7811C34.3854 29.5201 33.6605 30 32.8578 30H24V31L24.0067 31.1166C24.06 31.5757 24.4243 31.9399 24.8834 31.9933L25 32H34L34.1166 32.0067C34.614 32.0645 35 32.4872 35 33C35 33.5128 34.614 33.9355 34.1166 33.9933L34 34H25L24.8237 33.9949C23.3072 33.907 22.093 32.6928 22.0051 31.1763L22 31V29L22.0067 28.8834C22.0188 28.7799 22.0466 28.6812 22.0877 28.5898C22.031 28.4041 22 28.2057 22 28V21.915L20.085 20H19C18.4477 20 18 19.5523 18 19C18 18.4477 18.4477 18 19 18H20.5ZM34.978 23H24V28H32.8578L34.978 23Z" fill="#1E5EFF"/>
</svg>
