<svg width="36" height="36" viewBox="0 0 36 36" fill="none" xmlns="http://www.w3.org/2000/svg">
<rect width="36" height="36" rx="4" fill="white"/>
<path fill-rule="evenodd" clip-rule="evenodd" d="M15.3871 12.2097L15.2929 12.2929L10.2929 17.2929C9.93241 17.6534 9.90468 18.2206 10.2097 18.6129L10.2929 18.7071L15.2929 23.7071C15.6834 24.0976 16.3166 24.0976 16.7071 23.7071C17.0676 23.3466 17.0953 22.7794 16.7903 22.3871L16.7071 22.2929L13.414 18.999L24 19C24.5523 19 25 18.5523 25 18C25 17.4477 24.5523 17 24 17L13.416 16.999L16.7071 13.7071C17.0676 13.3466 17.0953 12.7794 16.7903 12.3871L16.7071 12.2929C16.3466 11.9324 15.7794 11.9047 15.3871 12.2097Z" fill="#7E84A3"/>
</svg>
