<svg width="36" height="36" viewBox="0 0 36 36" fill="none" xmlns="http://www.w3.org/2000/svg">
<rect width="36" height="36" rx="4" fill="white"/>
<path fill-rule="evenodd" clip-rule="evenodd" d="M19.6129 12.2097C19.2206 11.9047 18.6534 11.9324 18.2929 12.2929L18.2097 12.3871C17.9047 12.7794 17.9324 13.3466 18.2929 13.7071L21.5852 17H11C10.4477 17 10 17.4477 10 18C10 18.5523 10.4477 19 11 19H21.5852L18.2929 22.2929L18.2097 22.3871C17.9047 22.7794 17.9324 23.3466 18.2929 23.7071C18.6834 24.0976 19.3166 24.0976 19.7071 23.7071L24.7071 18.7071L24.7903 18.6129C25.0953 18.2206 25.0676 17.6534 24.7071 17.2929L19.7071 12.2929L19.6129 12.2097Z" fill="#7E84A3"/>
</svg>
