<svg width="41" height="40" viewBox="0 0 41 40" fill="none" xmlns="http://www.w3.org/2000/svg">
<rect x="2.66602" y="2" width="36" height="36" rx="18" fill="#E0E2E7"/>
<rect x="2.66602" y="2" width="36" height="36" rx="18" stroke="#F0F1F3" stroke-width="4"/>
<path d="M19.166 25C18.6137 25 18.166 25.4477 18.166 26C18.166 26.5523 18.6137 27 19.166 27H22.166C22.7183 27 23.166 26.5523 23.166 26C23.166 25.4477 22.7183 25 22.166 25H19.166Z" fill="#667085"/>
<path fill-rule="evenodd" clip-rule="evenodd" d="M14.166 13C14.166 11.3431 15.5092 10 17.166 10H24.166C25.8229 10 27.166 11.3431 27.166 13V27C27.166 28.6569 25.8229 30 24.166 30H17.166C15.5092 30 14.166 28.6569 14.166 27V13ZM17.166 12H24.166C24.7183 12 25.166 12.4477 25.166 13V27C25.166 27.5523 24.7183 28 24.166 28H17.166C16.6137 28 16.166 27.5523 16.166 27V13C16.166 12.4477 16.6137 12 17.166 12Z" fill="#667085"/>
</svg>
