<svg width="18" height="19" viewBox="0 0 18 19" fill="none" xmlns="http://www.w3.org/2000/svg">
<path d="M9.566 0.885742C10.1183 0.885742 10.566 1.33346 10.566 1.88574V7.26574C10.566 7.81803 11.0137 8.26574 11.566 8.26574H16.568C17.1203 8.26574 17.568 8.71346 17.568 9.26574V10.5597C17.568 11.112 17.1203 11.5597 16.568 11.5597H11.566C11.0137 11.5597 10.566 12.0075 10.566 12.5597V17.9757C10.566 18.528 10.1183 18.9757 9.566 18.9757H7.966C7.41372 18.9757 6.966 18.528 6.966 17.9757V12.5597C6.966 12.0075 6.51828 11.5597 5.966 11.5597H0.999999C0.447715 11.5597 0 11.112 0 10.5597V9.26574C0 8.71346 0.447715 8.26574 1 8.26574H5.966C6.51829 8.26574 6.966 7.81803 6.966 7.26574V1.88574C6.966 1.33346 7.41372 0.885742 7.966 0.885742H9.566Z" fill="#D651FF"/>
</svg>
