<svg width="56" height="56" viewBox="0 0 56 56" fill="none" xmlns="http://www.w3.org/2000/svg">
<circle cx="28" cy="28" r="28" fill="#ECF2FF"/>
<path fill-rule="evenodd" clip-rule="evenodd" d="M28 19C28.5523 19 29 19.4477 29 20L29.0008 20.0903C31.1936 20.4914 32.8893 22.1853 32.9948 24.2915L33 24.5H31C31 23.4338 30.1779 22.491 29.0014 22.1428L29.0008 27.0903C31.2655 27.5046 33 29.2978 33 31.5C33 33.7022 31.2655 35.4954 29.0008 35.9097L29 36C29 36.5523 28.5523 37 28 37C27.4477 37 27 36.5523 27 36L27.0002 35.9099C24.8069 35.5091 23.1107 33.815 23.0052 31.7085L23 31.5H25C25 32.5665 25.8226 33.5095 26.9996 33.8575L27.0002 28.9099C24.735 28.4959 23 26.7025 23 24.5C23 22.2975 24.735 20.5041 27.0002 20.0901L27 20C27 19.4477 27.4477 19 28 19ZM29.0012 29.1428L29.0014 33.8572C30.1779 33.509 31 32.5662 31 31.5C31 30.4337 30.1778 29.491 29.0012 29.1428ZM25 24.5C25 25.5666 25.8227 26.5096 26.9998 26.8575L26.9996 22.1425C25.8226 22.4905 25 23.4335 25 24.5Z" fill="#1E5EFF"/>
</svg>
