<svg width="41" height="40" viewBox="0 0 41 40" fill="none" xmlns="http://www.w3.org/2000/svg">
<rect x="2.33398" y="2" width="36" height="36" rx="18" fill="#E0E2E7"/>
<rect x="2.33398" y="2" width="36" height="36" rx="18" stroke="#F0F1F3" stroke-width="4"/>
<path d="M24.2998 18.4475C24.685 18.0517 24.6764 17.4186 24.2806 17.0334C23.8849 16.6482 23.2518 16.6568 22.8666 17.0525L19.6068 20.4017L18.2086 19.2809C17.7777 18.9354 17.1484 19.0047 16.8029 19.4356C16.4575 19.8666 16.5268 20.4959 16.9577 20.8414L19.4188 22.8143C19.6198 22.9754 19.9102 22.9575 20.0899 22.7729L24.2998 18.4475Z" fill="#667085"/>
<path fill-rule="evenodd" clip-rule="evenodd" d="M18.9425 10.3453C19.7178 9.5952 20.9483 9.5952 21.7237 10.3453L23.0524 11.6307L24.883 11.3718C25.9511 11.2207 26.9466 11.944 27.133 13.0065L27.4524 14.8275L29.0856 15.694C30.0385 16.1996 30.4188 17.3699 29.945 18.3391L29.1331 20L29.945 21.661C30.4188 22.6301 30.0385 23.8004 29.0856 24.306L27.4524 25.1725L27.133 26.9935C26.9466 28.056 25.9511 28.7793 24.883 28.6282L23.0524 28.3693L21.7237 29.6547C20.9483 30.4048 19.7178 30.4048 18.9425 29.6547L17.6137 28.3693L15.7832 28.6282C14.715 28.7793 13.7195 28.056 13.5331 26.9935L13.2137 25.1725L11.5806 24.306C10.6276 23.8004 10.2474 22.6301 10.7212 21.661L11.5331 20L10.7212 18.3391C10.2474 17.3699 10.6276 16.1996 11.5806 15.694L13.2137 14.8275L13.5331 13.0065C13.7195 11.944 14.715 11.2207 15.7832 11.3718L17.6137 11.6307L18.9425 10.3453ZM20.3331 11.7827L22.3645 13.7479L25.1631 13.3521L25.6514 16.136L28.1482 17.4607L26.9069 20L28.1482 22.5393L25.6514 23.864L25.1631 26.6479L22.3645 26.2521L20.3331 28.2173L18.3016 26.2521L15.5031 26.6479L15.0147 23.864L12.518 22.5393L13.7592 20L12.518 17.4607L15.0147 16.136L15.5031 13.3521L18.3016 13.7479L20.3331 11.7827Z" fill="#667085"/>
</svg>
