<svg width="57" height="60" viewBox="0 0 57 60" fill="none" xmlns="http://www.w3.org/2000/svg">
<path d="M44.6663 18.0074L28.4499 11.8985C28.252 11.8239 28.0337 11.8239 27.8358 11.8985L11.6187 18.0074C11.3456 18.1117 11.175 18.3898 11.2039 18.6834C11.8833 25.5919 14.3969 33.7121 17.7635 39.8749C21.0983 45.9793 24.9783 49.6238 28.1425 49.6238C31.3065 49.6238 35.1865 45.9793 38.5213 39.8749C41.8879 33.7121 44.4015 25.5919 45.081 18.6832C45.1105 18.3851 44.9438 18.1134 44.6663 18.0074Z" fill="#D651FF"/>
<path d="M52.0992 9.84267L30.756 0.544556C29.0894 -0.181519 27.1961 -0.181519 25.5296 0.544556L4.18637 9.84267C1.43405 10.8943 -0.172851 13.6545 0.0148126 16.5949C1.23847 35.7762 13.747 60 28.143 60C42.539 60 55.0223 36.7145 56.2712 16.5949C56.4537 13.6496 54.8558 10.896 52.0992 9.84267ZM49.3355 19.1017C47.9129 33.5661 38.9892 53.8985 28.1428 53.8985C17.2961 53.8985 8.37247 33.5661 6.94982 19.1017C6.73245 16.8922 8.01916 14.8066 10.0931 14.014L26.3833 7.78948C26.9497 7.57297 27.5464 7.46481 28.1428 7.46481H28.143C28.7395 7.46481 29.3357 7.57297 29.9023 7.78948L46.192 14.014C48.2692 14.8078 49.5531 16.889 49.3355 19.1017Z" fill="#D651FF"/>
</svg>
