<svg width="32" height="32" viewBox="0 0 32 32" fill="none" xmlns="http://www.w3.org/2000/svg">
    <path
        d="M30.9087 28.3567L25.0473 22.4954C26.8237 20.1699 27.798 17.3493 27.7984 14.3729C27.7984 10.786 26.4014 7.41359 23.8647 4.87733C21.3284 2.34107 17.9565 0.944092 14.3692 0.944092C10.7823 0.944092 7.40988 2.34107 4.87361 4.87733C-0.362168 10.1135 -0.362168 18.6331 4.87361 23.8684C7.40988 26.4051 10.7823 27.8021 14.3692 27.8021C17.3456 27.8017 20.1662 26.8274 22.4917 25.051L28.353 30.9124C28.7056 31.2654 29.1684 31.4419 29.6308 31.4419C30.0933 31.4419 30.5561 31.2654 30.9087 30.9124C31.6147 30.2068 31.6147 29.0623 30.9087 28.3567ZM7.42929 21.3127C3.60284 17.4863 3.60328 11.2599 7.42929 7.433C9.28295 5.57978 11.7477 4.55875 14.3692 4.55875C16.991 4.55875 19.4554 5.57978 21.309 7.433C23.1627 9.28666 24.1837 11.7514 24.1837 14.3729C24.1837 16.9947 23.1627 19.4591 21.309 21.3127C19.4554 23.1664 16.991 24.1874 14.3692 24.1874C11.7477 24.1874 9.28295 23.1664 7.42929 21.3127Z"
        fill="white" />
</svg>