<svg width="31" height="32" viewBox="0 0 31 32" fill="none" xmlns="http://www.w3.org/2000/svg">
<path d="M30.1548 28.3567L24.2934 22.4954C26.0698 20.1699 27.0441 17.3493 27.0445 14.3729C27.0445 10.786 25.6475 7.41359 23.1108 4.87733C20.5745 2.34107 17.2025 0.944092 13.6152 0.944092C10.0284 0.944092 6.65597 2.34107 4.11971 4.87733C-1.11607 10.1135 -1.11607 18.6331 4.11971 23.8684C6.65597 26.4051 10.0284 27.8021 13.6152 27.8021C16.5916 27.8017 19.4123 26.8274 21.7377 25.051L27.5991 30.9124C27.9517 31.2654 28.4145 31.4419 28.8769 31.4419C29.3394 31.4419 29.8022 31.2654 30.1548 30.9124C30.8608 30.2068 30.8608 29.0623 30.1548 28.3567ZM6.67538 21.3127C2.84893 17.4863 2.84937 11.2599 6.67538 7.433C8.52904 5.57978 10.9938 4.55875 13.6152 4.55875C16.2371 4.55875 18.7014 5.57978 20.5551 7.433C22.4088 9.28666 23.4298 11.7514 23.4298 14.3729C23.4298 16.9947 22.4088 19.4591 20.5551 21.3127C18.7014 23.1664 16.2371 24.1874 13.6152 24.1874C10.9938 24.1874 8.52904 23.1664 6.67538 21.3127Z" fill="#D651FF"/>
</svg>
