<svg width="63" height="58" viewBox="0 0 63 58" fill="none" xmlns="http://www.w3.org/2000/svg">
<path d="M26.6799 8.28864C27.154 6.77686 27.2967 4.49691 29.5622 4.10756C32.3396 3.8515 35.289 4.01285 37.8524 5.02656C39.9334 5.67547 39.0062 8.24304 41.0536 8.94106C44.1162 10.0565 47.2796 11.1018 49.9437 12.8275C51.4415 13.8938 52.2051 15.4582 53.04 16.9034C53.7364 18.1801 54.6972 19.3727 55.0832 20.7582C56.304 24.8657 57.7599 28.9591 58.0745 33.2033C59.3919 36.0094 59.5555 39.0435 60.0422 41.9969C60.7848 44.7889 61.2714 47.6722 60.8351 50.5274C60.6547 51.4429 59.8702 52.169 59.5849 53.0494C59.3667 54.021 59.2157 55.0031 58.9933 55.9748C56.6019 56.087 54.1056 55.838 51.9324 54.9646C51.1688 54.2139 51.9198 53.074 51.496 52.1935C50.0444 49.4471 50.9968 46.3569 50.3171 43.4771C49.906 44.6557 49.7382 45.8763 49.8305 47.104C49.9269 48.2089 48.8613 49.1384 49.0249 50.2503C49.0291 51.2184 49.3899 52.3338 48.6012 53.1652C47.9173 53.6667 46.9608 53.6878 46.1091 53.807C43.2478 54.0631 40.4117 54.5577 37.5294 54.5998C31.7187 54.2946 25.5723 55.1399 20.0595 53.1897C18.3729 52.7442 18.6415 51.0465 18.6079 49.8785C18.3897 48.5667 17.7856 47.3215 17.622 45.9991C14.0013 44.6557 10.0785 43.9787 6.52499 42.5125C4.04967 41.5198 2.93788 39.282 2.11977 37.237C1.71281 35.9357 2.4554 34.6554 2.67776 33.3822C2.94627 31.0777 4.38531 29.0467 5.52647 26.9878C6.91097 24.4939 9.26882 22.5015 10.6659 20.0146C12.0336 17.7733 12.8685 15.2688 14.8026 13.2975C16.0403 12.0278 17.9786 11.5437 19.619 10.751C21.8426 9.6952 24.2172 8.8674 26.6799 8.28864ZM28.463 6.41908C29.6545 8.20446 31.0348 9.94775 32.9396 11.2596C33.4304 11.6489 34.1478 11.5718 34.7604 11.6665C34.4961 10.5721 32.8976 10.5616 32.2683 9.70923C31.4963 8.84636 30.7873 7.92736 29.7678 7.24337C29.8223 6.56289 29.8937 5.88592 29.9902 5.20895C30.2209 5.6895 30.4433 6.17004 30.6656 6.65409C33.1409 6.69969 35.6121 6.90313 38.0916 6.8435C37.8776 6.40154 37.6427 5.90697 37.0343 5.76316C34.8359 4.92834 32.3102 4.87222 29.9608 5.18791C29.2014 5.2791 28.9413 6.0122 28.463 6.41908ZM27.8589 6.94172C27.2254 9.68117 30.6363 11.4069 33.1493 12.368C30.888 10.9018 29.6923 8.70956 27.8589 6.94172ZM31.3075 7.56257C32.1592 8.66045 33.3171 9.5549 34.7142 10.1512C35.7631 10.4879 35.8764 11.4806 36.1868 12.2593C37.1854 12.2137 38.4524 12.2102 38.8384 11.2491C39.6775 10.0881 39.1824 8.79374 38.4398 7.70638C37.8566 9.15503 37.0259 10.5967 37.1937 12.1646C36.8959 12.0102 36.598 11.8559 36.3001 11.7016C36.233 11.4315 36.0987 10.8913 36.0316 10.6212C36.7281 9.76185 37.2651 8.81128 37.4748 7.78004C35.4191 7.69586 33.3675 7.56257 31.3075 7.56257ZM17.0891 13.2133C20.5126 17.7241 22.2621 22.9505 23.7305 28.0997C24.0788 28.7872 23.2774 29.3168 22.9082 29.857C22.6649 29.7202 22.1866 29.4501 21.9433 29.3168L21.83 29.7658C22.1363 29.8184 22.7446 29.9237 23.0509 29.9728C21.8426 30.5235 20.391 29.4677 19.2624 30.3235C19.082 30.3446 18.7254 30.3867 18.545 30.4077C17.7185 32.1124 16.6276 33.7049 15.3438 35.1991C16.5102 35.9708 17.9198 36.3987 19.2959 36.8372C19.5141 35.1956 19.6777 33.2278 18.0121 32.0423C18.1296 31.7406 18.3688 31.1373 18.4862 30.8356C18.8638 30.8356 19.2414 30.8356 19.619 30.8391C20.2357 33.1086 21.3349 35.399 20.6217 37.7597C22.6397 38.6506 24.7752 39.3662 27.0072 39.7766C26.852 39.4539 26.5373 38.812 26.3821 38.4893C27.0408 38.6296 27.6994 38.7804 28.3539 38.9312C28.6602 39.4047 29 39.8678 29.2308 40.3729C29.6503 43.4631 27.7456 46.2832 27.2589 49.2787C25.7402 49.4541 24.2214 49.6505 22.6817 49.6926C23.269 50.7905 25.0185 50.338 26.1681 50.4257C29.7552 50.103 33.3465 50.7168 36.9252 50.3976C36.6651 51.4604 36.5686 52.5443 36.6441 53.6247C37.0343 53.6527 37.8231 53.7088 38.2174 53.7369C38.2552 52.6741 37.7643 51.5131 38.486 50.545C39.1572 51.6148 38.8468 52.8144 38.5866 53.9368C38.788 53.8316 39.1908 53.6282 39.3922 53.5229C39.1698 51.1097 40.1977 48.8087 40.3655 46.42C40.0802 45.7746 40.4662 44.7714 39.7614 44.3505C39.6817 45.7606 39.6229 47.2127 39.0355 48.5631C39.0272 47.0338 39.0481 45.501 39.1614 43.9752C39.6145 40.8113 39.5474 37.6194 39.5558 34.438C39.6984 27.77 38.209 21.1546 36.1449 14.7427C35.6456 13.2554 33.5605 13.1257 32.1047 12.6591C29.8979 12.0909 28.2658 10.6738 26.7219 9.30936C23.3362 10.2389 19.9001 11.3262 17.0891 13.2133ZM39.8411 9.71274C39.69 10.9474 39.3041 12.4311 37.6846 12.8521C37.8021 13.2519 37.9573 13.6413 38.1209 14.0271C38.1881 13.9289 38.3265 13.7255 38.3937 13.6272C38.4104 13.494 38.444 13.2309 38.4608 13.0976C38.6202 13.045 38.9307 12.9362 39.0859 12.8801C39.6775 13.5641 38.767 14.1569 38.4692 14.7392C38.5531 15.2443 38.6957 15.7388 38.9013 16.2229C40.5879 20.7688 41.5654 25.4865 41.7626 30.2464C41.9472 36.9108 41.9975 43.6244 40.7053 50.2223C41.6032 50.1872 42.5136 50.1591 43.3695 49.9171C44.7749 49.5137 46.4028 49.9487 47.7034 49.2682C48.7984 48.4685 49.155 47.1917 49.113 46.0236C49.0417 44.0874 49.4654 42.1828 49.6249 40.2606C50.2416 37.6615 50.6402 34.9711 49.9479 32.3544C50.057 30.1552 51.9995 28.2681 52.0415 26.0337C52.2638 23.6731 51.538 21.351 51.58 18.9904C51.559 17.2015 50.7996 15.3811 49.3144 14.0727C46.6713 11.9436 43.1555 10.8913 39.8411 9.71274ZM32.348 11.8629C33.5479 12.824 35.2554 13.2133 36.3924 14.2376C37.2777 16.977 38.3349 19.7059 38.7922 22.5331C39.0062 22.263 39.2201 21.9929 39.4341 21.7193C38.8132 19.7866 38.423 17.8083 37.9657 15.8441C37.6762 14.8233 37.4539 13.6483 36.4218 12.9433C35.1925 12.3119 33.6863 12.2382 32.348 11.8629ZM16.292 13.8623C13.9509 15.9914 12.9105 18.8255 11.2784 21.323C9.54152 24.1326 6.80609 26.4722 5.53486 29.4852C5.09015 30.6006 3.87766 31.453 3.95318 32.7122C3.94059 34.017 3.03438 35.2377 3.24834 36.5355C4.17973 38.5384 5.12371 40.9411 7.70391 41.839C10.9554 43.1053 14.4208 43.9191 17.752 45.0169C19.3505 45.5571 21.0077 45.9675 22.6565 46.3849C21.9643 45.259 23.0257 43.9296 22.2831 42.8878C23.0425 41.8636 22.2328 40.7832 22.4677 39.7204C21.7041 39.517 20.9322 39.3241 20.1938 39.068C19.3085 38.8751 19.64 37.7386 18.7002 37.5738C17.3031 37.0161 15.9312 36.3391 15.0669 35.2272C14.3159 36.2479 12.2266 36.3601 11.5218 35.2587C10.1079 35.2412 8.69404 35.2167 7.28437 35.3008C7.10396 35.0413 7.05362 34.7536 7.12914 34.4345L6.62988 34.466C7.33471 33.768 8.40455 33.5821 9.44922 33.554C8.86186 33.7014 8.2661 33.8276 7.66615 33.9329C7.51092 34.3187 7.39345 34.7116 7.42701 35.1219C9.34014 34.2345 11.5344 34.238 13.6027 34.6765C13.3594 34.9325 12.8727 35.4482 12.6294 35.7077C13.2167 35.5358 13.6992 35.2377 14.0265 34.7992C15.3564 32.9262 17.7101 31.5231 18.18 29.2818C19.3127 29.2677 20.4497 29.2607 21.5867 29.2888C22.044 29.0011 22.5013 28.717 22.9628 28.4364C22.8453 26.6966 22.1489 25.0516 21.444 23.431C20.2315 20.1339 18.8554 16.8402 16.7619 13.8552C16.6444 13.8552 16.4095 13.8587 16.292 13.8623ZM52.3058 17.8329C52.3184 19.4253 52.5113 21.109 53.0651 22.6138C53.384 24.2834 53.1449 25.9951 52.7631 27.6402C52.3645 29.4045 50.594 30.9303 51.2317 32.8174C51.9492 31.9616 52.4232 30.9724 53.2162 30.1552C53.6609 31.8844 51.6513 33.1156 51.8568 34.8098C51.8317 35.9041 51.6639 36.9915 51.6009 38.0824C52.5994 37.2932 53.5476 36.4338 54.7685 35.8761C53.7406 36.8056 52.3981 37.5141 51.6009 38.612C50.3423 40.8744 51.3786 43.3824 51.8652 45.6939C51.9827 47.3671 51.731 49.198 52.3855 50.7659C54.3322 51.7305 56.7865 51.5446 58.9681 51.7902C60.21 49.4225 60.0632 46.7322 59.4506 44.2488C58.7248 41.2287 58.7752 38.0754 57.5585 35.1395C56.8914 33.5611 56.9375 31.8669 56.69 30.2253C56.4677 28.5487 55.7586 26.9562 55.3894 25.3041C55.0034 23.4977 54.2734 21.7684 53.7196 20.0006C53.4092 20.4531 54.1014 22.0525 53.0945 21.7509C52.5743 20.4952 52.9938 19.0711 52.3058 17.8329ZM38.9097 22.968C39.4383 25.248 40.0047 27.5455 40.0299 29.8781C40.2648 29.6185 40.504 29.3554 40.7389 29.0959C40.483 26.7738 39.925 24.4903 39.5852 22.1788C39.3586 22.4419 39.1362 22.705 38.9097 22.968ZM40.1515 30.327C40.462 33.6803 40.3991 37.0511 40.1515 40.4079C39.9208 42.2424 40.0047 44.1471 40.6928 45.9044C40.3236 43.7402 40.8228 41.5514 40.806 39.3767C41.0452 36.1041 40.8354 32.828 40.869 29.5589C40.6298 29.8114 40.3907 30.0675 40.1515 30.327ZM23.7725 39.8327C23.9949 41.7478 23.5334 43.6455 23.4536 45.5501C22.8411 45.5712 22.8621 46.1569 22.6481 46.4937C23.5543 46.5287 24.5612 46.8093 25.2871 46.192C24.964 46.1639 24.3095 46.1078 23.9865 46.0798L23.89 45.6623C24.1501 45.6273 24.6703 45.5641 24.9304 45.5326C25.3206 43.8208 25.48 42.0705 26.0129 40.3834C25.2661 40.201 24.5193 40.0186 23.7725 39.8327ZM25.7737 47.8546C24.3892 47.7424 23.0047 47.6406 21.6202 47.5459C20.2861 47.4933 19.1911 46.7708 17.9534 46.4375C18.138 46.9707 18.331 47.6301 19.04 47.8406C21.4314 48.7491 24.1291 48.7631 26.6967 48.5526C27.5023 45.8588 28.7105 43.1649 28.4672 40.3413C28.1693 40.2255 27.5778 39.9905 27.2841 39.8748C26.659 42.5195 26.3233 45.1993 25.7737 47.8546ZM18.9645 48.6158C19.3589 49.2962 20.0385 49.8084 20.8818 50.0855C21.465 50.317 22.946 50.9624 22.753 49.7873C21.5951 49.191 20.2609 48.9139 18.9645 48.6158ZM40.4662 51.036C40.4117 51.2325 40.3026 51.6218 40.2522 51.8182C42.501 51.8568 44.7456 51.6674 46.9314 51.2289C47.0782 51.2535 47.3677 51.3026 47.5104 51.3272C47.4978 51.4219 47.4684 51.6078 47.4558 51.7025C45.2322 52.6285 42.6311 52.5548 40.2187 52.881C40.2061 53.0845 40.1809 53.4879 40.1725 53.6913C42.4758 53.4142 44.8085 53.1511 47.0279 52.5478C47.8796 51.9094 48.3746 50.9448 48.3788 49.9837C45.9077 50.9834 43.1135 50.7694 40.4662 51.036ZM19.5351 50.338C19.5561 50.7098 19.577 51.0781 19.598 51.4499C20.8567 51.4745 22.0482 51.8673 23.3068 51.927C22.1531 51.236 20.8231 50.8115 19.5351 50.338ZM22.6187 51.0325C22.9796 51.2325 23.3655 51.3833 23.7767 51.492C27.712 52.2146 31.7606 52.1234 35.7631 52.2041C35.7379 52.0147 35.6834 51.6288 35.6582 51.4394C31.3075 51.3657 26.9694 51.0816 22.6187 51.0325ZM19.3966 51.5832C21.5573 53.4387 24.8549 52.7021 27.5946 52.8705C26.8729 53.0284 26.1303 53.088 25.3919 53.1546L25.3835 53.3195C28.9035 53.0985 32.4906 53.4703 35.9729 52.9617C33.1871 52.7969 30.3803 52.8635 27.5904 52.853L27.6449 52.5338C26.038 52.5022 24.4773 52.0497 22.8663 52.1234C21.6748 52.176 20.5756 51.6674 19.3966 51.5832ZM52.0834 51.5657C52.4274 52.2216 52.7421 52.8951 53.1658 53.5194C54.672 54.0631 56.325 54.4139 57.978 54.3121C58.2885 53.8491 58.2381 53.2879 58.3598 52.7793C56.2285 52.5618 53.8665 52.7477 52.0834 51.5657Z" stroke="white" stroke-width="3"/>
</svg>
