<svg width="56" height="56" viewBox="0 0 56 56" fill="none" xmlns="http://www.w3.org/2000/svg">
<path d="M45.8649 0H10.1356L2.78027 11.5091H53.2202L45.8649 0Z" fill="white"/>
<path d="M1.9541 15.1611V19.225C1.9541 23.5705 5.48954 27.106 9.83512 27.106C12.266 27.106 14.4433 25.9999 15.89 24.2642C17.3367 25.9998 19.514 27.106 21.9449 27.106C24.3758 27.106 26.5531 25.9999 27.9998 24.2642C29.4467 25.9998 31.6239 27.106 34.0547 27.106C36.4854 27.106 38.6629 25.9999 40.1096 24.2642C41.5565 25.9998 43.7337 27.106 46.1645 27.106C50.5099 27.106 54.0454 23.5705 54.0454 19.225V15.1611H1.9541Z" fill="white"/>
<path d="M46.1648 30.758C43.9968 30.758 41.9088 30.1528 40.1099 29.0403C38.3108 30.1528 36.223 30.758 34.055 30.758C31.887 30.758 29.799 30.1528 28.0001 29.0403C26.2012 30.1528 24.1133 30.758 21.9452 30.758C19.7772 30.758 17.6892 30.1528 15.8904 29.0403C14.0912 30.1528 12.0035 30.758 9.83547 30.758C8.48315 30.758 7.18487 30.5233 5.97803 30.0938V55.9998H28.9431V35.3042H43.2985V55.9998H50.2663V30.004C48.9908 30.4906 47.6087 30.758 46.1648 30.758ZM22.6845 45.0433H12.9454V35.3041H22.6845V45.0433Z" fill="white"/>
</svg>
