<svg width="58" height="59" viewBox="0 0 58 59" fill="none" xmlns="http://www.w3.org/2000/svg">
<rect x="0.5" y="1.41992" width="57" height="57" rx="28.5" stroke="#F0E4F4"/>
<path d="M35.7908 26.0093C35.802 26.1799 35.802 26.3505 35.802 26.521C35.802 31.723 32.1726 37.7169 25.5391 37.7169C23.4954 37.7169 21.597 37.0712 20 35.9505C20.2904 35.987 20.5695 35.9992 20.8711 35.9992C22.5573 35.9992 24.1096 35.3779 25.3492 34.318C23.7634 34.2814 22.4345 33.1484 21.9766 31.589C22.2 31.6255 22.4233 31.6499 22.6579 31.6499C22.9817 31.6499 23.3056 31.6012 23.6071 31.5159C21.9543 31.1504 20.7147 29.5667 20.7147 27.654V27.6053C21.1949 27.8977 21.7533 28.0804 22.3451 28.1047C21.3736 27.3981 20.737 26.1921 20.737 24.8276C20.737 24.0966 20.9157 23.4266 21.2284 22.8418C23.004 25.2296 25.6731 26.789 28.6659 26.9596C28.6101 26.6672 28.5766 26.3626 28.5766 26.0581C28.5766 23.8895 30.1847 22.123 32.1837 22.123C33.2223 22.123 34.1603 22.5982 34.8192 23.3657C35.6344 23.1951 36.4162 22.8662 37.1086 22.4154C36.8405 23.3292 36.271 24.0967 35.5228 24.5839C36.2487 24.4987 36.9522 24.2794 37.5999 23.9748C37.1086 24.7545 36.4944 25.4489 35.7908 26.0093Z" fill="#CA8FDD"/>
</svg>
