<svg width="58" height="59" viewBox="0 0 58 59" fill="none" xmlns="http://www.w3.org/2000/svg">
<rect y="0.919922" width="58" height="58" rx="29" fill="#D651FF"/>
<path d="M41.4776 23.9363C41.1901 22.8277 40.3429 21.9546 39.2673 21.6583C37.3177 21.1199 29.5 21.1199 29.5 21.1199C29.5 21.1199 21.6823 21.1199 19.7327 21.6583C18.6571 21.9546 17.8099 22.8277 17.5224 23.9363C17 25.9457 17 30.1381 17 30.1381C17 30.1381 17 34.3305 17.5224 36.3399C17.8099 37.4485 18.6571 38.2852 19.7327 38.5815C21.6823 39.1199 29.5 39.1199 29.5 39.1199C29.5 39.1199 37.3177 39.1199 39.2673 38.5815C40.3429 38.2852 41.1901 37.4485 41.4776 36.3399C42 34.3305 42 30.1381 42 30.1381C42 30.1381 42 25.9457 41.4776 23.9363ZM26.9432 33.9445V26.3317L33.4772 30.1382L26.9432 33.9445Z" fill="white"/>
</svg>
