<svg width="177" height="45" viewBox="0 0 177 45" fill="none" xmlns="http://www.w3.org/2000/svg">
<g id="logo">
<g id="Clevr">
<path d="M62.3389 24.9355C62.3389 34.1323 69.0714 40.6008 77.9162 40.6008C84.7368 40.6008 90.2812 36.9925 92.3494 30.656H85.2648C83.8127 33.6482 81.1725 35.1003 77.8722 35.1003C72.5037 35.1003 68.6754 31.14 68.6754 24.9355C68.6754 18.6869 72.5037 14.7706 77.8722 14.7706C81.1725 14.7706 83.8127 16.2227 85.2648 19.171H92.3494C90.2812 12.8785 84.7368 9.22614 77.9162 9.22614C69.0714 9.22614 62.3389 15.7387 62.3389 24.9355Z" fill="black"/>
<path d="M97.6113 40.3368H103.772V7.77402H97.6113V40.3368Z" fill="black"/>
<path d="M120.331 20.6231C123.5 20.6231 126.052 22.6473 126.14 25.8596H114.567C115.051 22.5153 117.383 20.6231 120.331 20.6231ZM131.904 32.6801H125.26C124.468 34.3083 123.016 35.6284 120.375 35.6284C117.295 35.6284 114.831 33.6042 114.523 29.9959H132.344C132.476 29.2038 132.52 28.4118 132.52 27.6197C132.52 20.3591 127.548 15.5627 120.507 15.5627C113.291 15.5627 108.274 20.4471 108.274 28.1477C108.274 35.8044 113.423 40.7328 120.507 40.7328C126.536 40.7328 130.584 37.1685 131.904 32.6801Z" fill="black"/>
<path d="M134.421 15.9587L143.398 40.3368H150.878L159.899 15.9587H153.342L147.182 34.6603L141.021 15.9587H134.421Z" fill="black"/>
<path d="M169.52 28.1918C169.52 23.4834 171.72 22.0752 175.372 22.0752H177V15.6067C173.612 15.6067 171.06 17.2348 169.52 19.743V15.9587H163.359V40.3368H169.52V28.1918Z" fill="black"/>
</g>
<g id="icon">
<path id="Vector" d="M21.6993 38.863C21.6993 38.863 17.8925 35.7841 1.90381 34.2614V41.875H17.1311C17.9876 40.1103 19.7401 38.9549 21.6993 38.863Z" fill="#CEF0FF"/>
<path id="Vector_2" d="M23.2217 38.863C23.2217 38.863 27.0285 35.7841 43.0172 34.2614V41.875H27.7899C26.9333 40.1103 25.1809 38.9549 23.2217 38.863Z" fill="#CEF0FF"/>
<path id="Vector_3" d="M1.90381 38.0682H11.8015V39.5909H1.90381V38.0682Z" fill="#58B1CC"/>
<path id="Vector_4" d="M33.1196 38.0682H43.0174V39.5909H33.1196V38.0682Z" fill="#58B1CC"/>
<path id="Vector_5" d="M30.0742 38.0682H31.5969V39.5909H30.0742V38.0682Z" fill="#58B1CC"/>
<path id="Vector_6" d="M21.6989 28.9318C21.6989 28.9318 31.5966 22.8409 23.983 15.9886C16.3694 9.13636 15.0842 4.56817 16.3694 0.761353C16.3694 0.761353 6.76791 10.3163 15.608 18.2727C23.2216 25.125 21.6989 28.9318 21.6989 28.9318Z" fill="#DCD0F7"/>
<path id="Vector_7" d="M27.7901 15.2273C27.7901 15.2273 21.9962 11.7082 26.2673 8.37499C30.5385 5.0418 30.795 2.61309 30.0742 0.761353C30.0742 0.761353 36.5565 6.02696 31.5969 9.89772C27.3257 13.2309 27.7901 15.2273 27.7901 15.2273Z" fill="#DCD0F7"/>
<path id="Vector_8" d="M22.4604 20.5568H23.9832V22.0795H22.4604V20.5568Z" fill="#D9176C"/>
<path id="Vector_9" d="M20.1763 18.2727H21.699V19.7955H20.1763V18.2727Z" fill="#D9176C"/>
<path id="Vector_10" d="M40.7331 19.7955C39.4718 19.7955 38.449 18.7727 38.449 17.5114C38.449 17.0909 38.1081 16.75 37.6877 16.75C37.2672 16.75 36.9263 17.0909 36.9263 17.5114C36.9263 18.7727 35.9036 19.7955 34.6422 19.7955C34.2218 19.7955 33.8809 20.1364 33.8809 20.5568C33.8809 20.9773 34.2218 21.3182 34.6422 21.3182C35.9036 21.3182 36.9263 22.3409 36.9263 23.6023C36.9263 24.0227 37.2672 24.3636 37.6877 24.3636C38.1081 24.3636 38.449 24.0227 38.449 23.6023C38.449 22.3409 39.4718 21.3182 40.7331 21.3182C41.1536 21.3182 41.4945 20.9773 41.4945 20.5568C41.4945 20.1364 41.1536 19.7955 40.7331 19.7955ZM37.6877 21.3416C37.4657 21.0431 37.2014 20.7788 36.9029 20.5568C37.2014 20.3349 37.4657 20.0706 37.6877 19.772C37.9096 20.0706 38.1739 20.3349 38.4725 20.5568C38.1739 20.7788 37.9096 21.0431 37.6877 21.3416Z" fill="#FFA451"/>
<path id="Vector_11" d="M15.6081 27.4091C14.3468 27.4091 13.324 26.3864 13.324 25.125C13.324 24.7046 12.9831 24.3636 12.5627 24.3636C12.1422 24.3636 11.8013 24.7046 11.8013 25.125C11.8013 26.3864 10.7786 27.4091 9.51722 27.4091C9.09676 27.4091 8.75586 27.75 8.75586 28.1705C8.75586 28.5909 9.09676 28.9318 9.51722 28.9318C10.7786 28.9318 11.8013 29.9545 11.8013 31.2159C11.8013 31.6364 12.1422 31.9773 12.5627 31.9773C12.9831 31.9773 13.324 31.6364 13.324 31.2159C13.324 29.9545 14.3468 28.9318 15.6081 28.9318C16.0286 28.9318 16.3695 28.5909 16.3695 28.1705C16.3695 27.75 16.0286 27.4091 15.6081 27.4091ZM12.5627 28.9553C12.3407 28.6567 12.0764 28.3924 11.7779 28.1705C12.0764 27.9485 12.3407 27.6842 12.5627 27.3857C12.7846 27.6842 13.0489 27.9485 13.3475 28.1705C13.0489 28.3924 12.7846 28.6567 12.5627 28.9553Z" fill="#FFA451"/>
<path id="Vector_12" d="M25.5061 3.04546C24.2447 3.04546 23.222 2.02275 23.222 0.761364C23.222 0.340904 22.8811 0 22.4606 0C22.0402 0 21.6993 0.340904 21.6993 0.761364C21.6993 2.02275 20.6766 3.04546 19.4152 3.04546C18.9947 3.04546 18.6538 3.38636 18.6538 3.80682C18.6538 4.22728 18.9947 4.56819 19.4152 4.56819C20.6766 4.56819 21.6993 5.5909 21.6993 6.85228C21.6993 7.27274 22.0402 7.61364 22.4606 7.61364C22.8811 7.61364 23.222 7.27274 23.222 6.85228C23.222 5.5909 24.2447 4.56819 25.5061 4.56819C25.9265 4.56819 26.2675 4.22728 26.2675 3.80682C26.2675 3.38636 25.9265 3.04546 25.5061 3.04546ZM22.4606 4.59161C22.2387 4.29308 21.9744 4.02876 21.6758 3.80682C21.9744 3.58488 22.2387 3.32056 22.4606 3.02204C22.6826 3.32056 22.9469 3.58488 23.2454 3.80682C22.9469 4.02876 22.6826 4.29308 22.4606 4.59161Z" fill="#FFA451"/>
<g id="Group">
<path id="Vector_13" d="M30.8354 14.4659H32.3582V15.9886H30.8354V14.4659Z" fill="#D9176C"/>
<path id="Vector_14" d="M30.8354 24.3636H32.3582V25.8864H30.8354V24.3636Z" fill="#D9176C"/>
<path id="Vector_15" d="M11.0396 20.5568H12.5623V22.0795H11.0396V20.5568Z" fill="#D9176C"/>
<path id="Vector_16" d="M18.6533 31.9773H20.1761V33.5H18.6533V31.9773Z" fill="#D9176C"/>
<path id="Vector_17" d="M4.1875 28.1705H5.71023V29.6932H4.1875V28.1705Z" fill="#D9176C"/>
</g>
<path id="Vector_18" d="M29.3125 30.4546C29.3125 31.2955 28.6307 31.9773 27.7898 31.9773C26.9489 31.9773 26.2671 31.2955 26.2671 30.4546C26.2671 29.6137 26.9489 28.9319 27.7898 28.9319C28.6307 28.9319 29.3125 29.6137 29.3125 30.4546Z" fill="#87CEE9"/>
<path id="Vector_19" d="M8.75591 17.5114C8.75591 18.3523 8.0741 19.0341 7.23318 19.0341C6.39226 19.0341 5.71045 18.3523 5.71045 17.5114C5.71045 16.6705 6.39226 15.9886 7.23318 15.9886C8.0741 15.9886 8.75591 16.6705 8.75591 17.5114Z" fill="#87CEE9"/>
<path id="Vector_20" d="M39.9717 9.89773C39.9717 10.7387 39.2899 11.4205 38.449 11.4205C37.6081 11.4205 36.9263 10.7387 36.9263 9.89773C36.9263 9.05681 37.6081 8.375 38.449 8.375C39.2899 8.375 39.9717 9.05681 39.9717 9.89773Z" fill="#87CEE9"/>
<path id="Vector_21" d="M25.5059 44.9205C25.5059 43.2386 24.1423 41.875 22.4604 41.875C20.7786 41.875 19.415 43.2386 19.415 44.9205H0.380859V41.875H17.1309C17.8922 40.3523 19.415 38.8296 22.4604 38.8296C25.5059 38.8296 27.0286 40.3523 27.79 41.875H44.54V44.9205H25.5059Z" fill="#8D28AD"/>
<path id="Vector_22" d="M0.380859 41.875H6.47177V44.9205H0.380859V41.875Z" fill="#5C067C"/>
<path id="Vector_23" d="M38.4492 41.875H44.5401V44.9205H38.4492V41.875Z" fill="#5C067C"/>
</g>
</g>
</svg>
